HIERARCHY
ROOT joint_Root
{
	OFFSET 0.0 0.0 0.0
	CHANNELS 6 Xposition Yposition Zposition Zrotation Xrotation Yrotation 
	JOINT Hips
	{
		OFFSET -17.1583 93.1646 452.98
		CHANNELS 6 Xposition Yposition Zposition Zrotation Xrotation Yrotation 
		JOINT Spine
		{
			OFFSET 15.7357 0.0 0.0
			CHANNELS 6 Xposition Yposition Zposition Zrotation Xrotation Yrotation 
			JOINT Chest
			{
				OFFSET 8.98455 -0.406207 0.0
				CHANNELS 6 Xposition Yposition Zposition Zrotation Xrotation Yrotation 
				JOINT Neck
				{
					OFFSET 16.3773 0.0 0.0
					CHANNELS 6 Xposition Yposition Zposition Zrotation Xrotation Yrotation 
					JOINT Head
					{
						OFFSET 6.45672 0.0 0.0
						CHANNELS 6 Xposition Yposition Zposition Zrotation Xrotation Yrotation 
						End Site
						{
							OFFSET 0.0 0.0 0.0
						}
					}
				}
				JOINT Shoulder_L
				{
					OFFSET 12.9942 -0.242716 4.98039
					CHANNELS 6 Xposition Yposition Zposition Zrotation Xrotation Yrotation 
					JOINT UpperArm_L
					{
						OFFSET 5.34809 0.0 0.0
						CHANNELS 6 Xposition Yposition Zposition Zrotation Xrotation Yrotation 
						JOINT LowerArm_L
						{
							OFFSET 24.3286 1.87007e-05 0.0
							CHANNELS 6 Xposition Yposition Zposition Zrotation Xrotation Yrotation 
							JOINT Hand_L
							{
								OFFSET 22.2916 0.0 0.0
								CHANNELS 6 Xposition Yposition Zposition Zrotation Xrotation Yrotation 
								End Site
								{
									OFFSET 0.0 0.0 0.0
								}
							}
						}
					}
				}
				JOINT Shoulder_R
				{
					OFFSET 12.9945 -0.242716 -4.98039
					CHANNELS 6 Xposition Yposition Zposition Zrotation Xrotation Yrotation 
					JOINT UpperArm_R
					{
						OFFSET -5.34813 0.0 0.0
						CHANNELS 6 Xposition Yposition Zposition Zrotation Xrotation Yrotation 
						JOINT LowerArm_R
						{
							OFFSET -24.3289 0.000322201 0.0
							CHANNELS 6 Xposition Yposition Zposition Zrotation Xrotation Yrotation 
							JOINT Hand_R
							{
								OFFSET -22.2915 -0.000108084 0.0
								CHANNELS 6 Xposition Yposition Zposition Zrotation Xrotation Yrotation 
								End Site
								{
									OFFSET 0.0 0.0 0.0
								}
							}
						}
					}
				}
			}
		}
		JOINT UpperLeg_L
		{
			OFFSET -2.19248 -6.46944 0.0
			CHANNELS 6 Xposition Yposition Zposition Zrotation Xrotation Yrotation 
			JOINT LowerLeg_L
			{
				OFFSET 39.0811 0.0 -1.23785e-05
				CHANNELS 6 Xposition Yposition Zposition Zrotation Xrotation Yrotation 
				JOINT Foot_L
				{
					OFFSET 40.9854 0.0 -1.26872e-05
					CHANNELS 6 Xposition Yposition Zposition Zrotation Xrotation Yrotation 
					JOINT Toes_L
					{
						OFFSET 11.7543 0.0 0.0
						CHANNELS 6 Xposition Yposition Zposition Zrotation Xrotation Yrotation 
						End Site
						{
							OFFSET 0.0 0.0 0.0
						}
					}
				}
			}
		}
		JOINT UpperLeg_R
		{
			OFFSET -2.19251 6.46944 0.0
			CHANNELS 6 Xposition Yposition Zposition Zrotation Xrotation Yrotation 
			JOINT LowerLeg_R
			{
				OFFSET -39.0811 -0.00228153 -0.0401928
				CHANNELS 6 Xposition Yposition Zposition Zrotation Xrotation Yrotation 
				JOINT Foot_R
				{
					OFFSET -40.9854 0.0 0.0
					CHANNELS 6 Xposition Yposition Zposition Zrotation Xrotation Yrotation 
					JOINT Toes_R
					{
						OFFSET -11.7543 0.0 0.0
						CHANNELS 6 Xposition Yposition Zposition Zrotation Xrotation Yrotation 
						End Site
						{
							OFFSET 0.0 0.0 0.0
						}
					}
				}
			}
		}
	}
}
MOTION
Frames:	4
Frame Time:	0.0333333
0.000000 0.000000 0.000000 0.000000 0.000000 -0.000000 -3.166670 93.534300 -3.283960 87.747100 2.904480 -1.408310 15.735700 0.000005 -0.000001 100.274000 88.429600 -99.329300 8.984550 -0.406207 -0.000000 -4.678740 0.457141 1.909400 16.377300 -0.000001 -0.000001 -4.143820 0.017924 -1.050740 6.456720 -0.000001 -0.000000 2.485610 -1.338180 0.534634 12.994200 -0.242716 4.980390 -92.484900 8.901800 -74.333700 5.348090 -0.000007 -0.000001 -66.472000 25.947900 -7.949090 24.328600 0.000019 0.000005 8.048750 36.961200 -13.238300 22.291600 -0.000001 0.000005 -17.224300 5.270470 0.839680 12.994500 -0.242716 -4.980390 88.905600 4.506640 -76.336000 -5.348130 -0.000001 -0.000004 -70.872400 39.326700 -4.300070 -24.328900 0.000322 -0.000009 0.828070 3.114020 -14.916900 -22.291500 -0.000108 -0.000004 -10.256700 5.155920 3.809880 -2.192480 -6.469440 -0.000000 -171.244000 -4.326930 -4.147660 39.081100 -0.000007 -0.000012 0.007840 -0.037587 11.782600 40.985400 -0.000006 -0.000013 -3.970880 14.035200 -66.034700 11.754300 -0.000000 0.000003 0.000542 0.157944 -10.171100 -2.192510 6.469440 -0.000001 -179.782000 8.987800 177.134000 -39.081100 -0.002282 -0.040193 0.023664 -0.098903 11.614300 -40.985400 0.000008 0.000006 -5.434550 3.297120 -66.700900 -11.754300 -0.000006 -0.000006 -0.007157 0.248670 -6.475810
0.000000 0.000000 0.000000 0.000000 0.000000 -0.000000 -3.126740 93.540300 -2.971020 87.800900 3.451050 -1.480370 15.735700 0.000005 -0.000001 102.910000 88.411800 -102.113000 8.984550 -0.406207 -0.000000 -4.673830 0.622600 1.620400 16.377300 -0.000001 -0.000001 -5.837840 -0.501800 -0.754643 6.456720 -0.000001 -0.000000 1.748580 -1.681640 0.396718 12.994200 -0.242716 4.980390 -92.476700 9.422920 -75.201400 5.348090 -0.000007 -0.000001 -61.420400 23.660200 -15.307700 24.328600 0.000019 0.000005 4.910500 45.647600 -6.855440 22.291600 -0.000001 0.000005 -25.870600 5.376930 -2.213370 12.994500 -0.242716 -4.980390 89.077300 3.988370 -76.962300 -5.348130 -0.000001 -0.000004 -66.447600 43.841100 -9.147180 -24.328900 0.000322 -0.000009 1.416490 5.224220 -15.203300 -22.291500 -0.000108 -0.000004 -19.148100 5.129210 4.436030 -2.192480 -6.469440 -0.000000 -171.236000 -4.375250 -4.029170 39.081100 -0.000007 -0.000012 -0.000707 0.003465 11.521200 40.985400 -0.000006 -0.000013 -4.411500 14.601200 -65.645900 11.754300 -0.000000 0.000003 0.000351 0.161487 -10.027300 -2.192510 6.469440 -0.000001 -179.887000 10.266300 177.592000 -39.081100 -0.002282 -0.040193 0.020667 -0.088707 11.054000 -40.985400 0.000008 0.000006 -5.190380 3.895420 -66.448600 -11.754300 -0.000006 -0.000006 -0.007212 0.249141 -6.456610
0.000000 0.000000 0.000000 0.000000 0.000000 -0.000000 -3.116800 93.565500 -2.568790 87.809300 4.001500 -1.459760 15.735700 0.000005 -0.000001 103.537000 88.578800 -102.905000 8.984550 -0.406207 -0.000000 -5.005710 0.594265 1.291060 16.377300 -0.000001 -0.000001 -6.650220 -0.958704 -0.602544 6.456720 -0.000001 -0.000000 1.037990 -1.859980 0.589248 12.994200 -0.242716 4.980390 -92.147200 8.353520 -75.529100 5.348090 -0.000007 -0.000001 -57.893100 16.912300 -23.148900 24.328600 0.000019 0.000005 1.672920 53.437600 -2.082720 22.291600 -0.000001 0.000005 -33.923800 5.315260 -0.339453 12.994500 -0.242716 -4.980390 89.415200 2.453220 -76.586500 -5.348130 -0.000001 -0.000004 -59.017700 45.447600 -17.793700 -24.328900 0.000322 -0.000009 2.116570 7.530690 -15.755600 -22.291500 -0.000108 -0.000004 -30.901100 5.124610 4.564560 -2.192480 -6.469440 -0.000000 -171.092000 -4.841650 -3.603220 39.081100 -0.000007 -0.000012 -0.014839 0.077202 10.879800 40.985400 -0.000006 -0.000013 -5.151550 15.583300 -64.833200 11.754300 -0.000000 0.000003 -0.000018 0.167932 -9.765550 -2.192510 6.469440 -0.000001 -179.971000 11.339400 178.441000 -39.081100 -0.002282 -0.040193 0.014087 -0.060933 10.003400 -40.985400 0.000008 0.000006 -5.290930 4.300490 -65.857500 -11.754300 -0.000006 -0.000006 -0.008120 0.256677 -6.148860
0.000000 0.000000 0.000000 0.000000 0.000000 -0.000000 -3.075690 93.615600 -2.177550 87.794400 4.375790 -1.813630 15.735700 0.000005 -0.000001 102.081000 89.087300 -101.523000 8.984550 -0.406207 -0.000000 -5.982330 0.314563 1.134380 16.377300 -0.000001 -0.000001 -6.491970 -1.047260 -0.792198 6.456720 -0.000001 -0.000000 0.700380 -1.820920 0.868636 12.994200 -0.242716 4.980390 -91.763700 6.760000 -75.340100 5.348090 -0.000007 -0.000001 -54.807100 8.712020 -30.739100 24.328600 0.000019 0.000005 2.371740 56.233300 -2.852440 22.291600 -0.000001 0.000005 -33.807900 5.220290 2.205680 12.994500 -0.242716 -4.980390 89.801700 0.772959 -75.605000 -5.348130 -0.000001 -0.000004 -51.637800 39.667400 -26.508700 -24.328900 0.000322 -0.000009 1.933810 6.368240 -16.941800 -22.291500 -0.000108 -0.000004 -35.904200 4.985020 7.629190 -2.192480 -6.469440 -0.000000 -170.958000 -4.645040 -3.367090 39.081100 -0.000007 -0.000012 -0.025209 0.144166 9.918250 40.985400 -0.000006 -0.000013 -6.375700 15.785200 -63.840900 11.754300 -0.000000 0.000003 -0.000122 0.169661 -9.695350 -2.192510 6.469440 -0.000001 179.979000 12.051600 179.133000 -39.081100 -0.002282 -0.040193 0.006597 -0.021917 8.449330 -40.985400 0.000008 0.000006 -5.769260 4.591930 -65.001700 -11.754300 -0.000006 -0.000006 -0.009328 0.266211 -5.759300
